<mxfile host="app.diagrams.net" agent="Mozilla/5.0 (Windows NT 10.0; Win64; x64; rv:130.0) Gecko/20100101 Firefox/130.0" version="24.7.13">
  <diagram name="PÃ¡gina-1" id="qt1vuH2VQ1LTmlTGHLm0">
    <mxGraphModel dx="2037" dy="1845" grid="1" gridSize="10" guides="1" tooltips="1" connect="1" arrows="1" fold="1" page="1" pageScale="1" pageWidth="827" pageHeight="1169" math="0" shadow="0">
      <root>
        <mxCell id="0" />
        <mxCell id="1" parent="0" />
        <mxCell id="i2Jq146n77kg6ucFChfH-1" value="Actor" style="shape=umlActor;verticalLabelPosition=bottom;verticalAlign=top;html=1;" vertex="1" parent="1">
          <mxGeometry x="-715" y="-910" width="30" height="60" as="geometry" />
        </mxCell>
        <mxCell id="i2Jq146n77kg6ucFChfH-2" value="&lt;div&gt;Tienda&lt;/div&gt;" style="ellipse;whiteSpace=wrap;html=1;" vertex="1" parent="1">
          <mxGeometry x="-495" y="-940" width="180" height="100" as="geometry" />
        </mxCell>
        <mxCell id="i2Jq146n77kg6ucFChfH-3" value="Consultar" style="ellipse;whiteSpace=wrap;html=1;" vertex="1" parent="1">
          <mxGeometry x="-245" y="-1090" width="140" height="70" as="geometry" />
        </mxCell>
        <mxCell id="i2Jq146n77kg6ucFChfH-4" value="&lt;div&gt;Comprar&lt;/div&gt;" style="ellipse;whiteSpace=wrap;html=1;" vertex="1" parent="1">
          <mxGeometry x="-165" y="-925" width="140" height="70" as="geometry" />
        </mxCell>
        <mxCell id="i2Jq146n77kg6ucFChfH-5" value="Escuchar canciones" style="ellipse;whiteSpace=wrap;html=1;" vertex="1" parent="1">
          <mxGeometry x="-235" y="-760" width="140" height="70" as="geometry" />
        </mxCell>
        <mxCell id="i2Jq146n77kg6ucFChfH-6" value="" style="endArrow=open;endFill=1;endSize=12;html=1;rounded=0;" edge="1" parent="1">
          <mxGeometry width="160" relative="1" as="geometry">
            <mxPoint x="-675" y="-890" as="sourcePoint" />
            <mxPoint x="-515" y="-890" as="targetPoint" />
          </mxGeometry>
        </mxCell>
        <mxCell id="i2Jq146n77kg6ucFChfH-7" value="" style="endArrow=open;endFill=1;endSize=12;html=1;rounded=0;" edge="1" parent="1" target="i2Jq146n77kg6ucFChfH-3">
          <mxGeometry width="160" relative="1" as="geometry">
            <mxPoint x="-365" y="-940" as="sourcePoint" />
            <mxPoint x="-205" y="-940" as="targetPoint" />
          </mxGeometry>
        </mxCell>
        <mxCell id="i2Jq146n77kg6ucFChfH-8" value="" style="endArrow=open;endFill=1;endSize=12;html=1;rounded=0;" edge="1" parent="1">
          <mxGeometry width="160" relative="1" as="geometry">
            <mxPoint x="-315" y="-890.59" as="sourcePoint" />
            <mxPoint x="-155" y="-890.59" as="targetPoint" />
          </mxGeometry>
        </mxCell>
        <mxCell id="i2Jq146n77kg6ucFChfH-9" value="" style="endArrow=open;endFill=1;endSize=12;html=1;rounded=0;" edge="1" parent="1" target="i2Jq146n77kg6ucFChfH-5">
          <mxGeometry width="160" relative="1" as="geometry">
            <mxPoint x="-375" y="-840" as="sourcePoint" />
            <mxPoint x="-215" y="-840" as="targetPoint" />
          </mxGeometry>
        </mxCell>
        <mxCell id="i2Jq146n77kg6ucFChfH-10" value="&lt;font style=&quot;font-size: 20px;&quot;&gt;cleinte&lt;/font&gt;" style="text;html=1;align=center;verticalAlign=middle;resizable=0;points=[];autosize=1;strokeColor=none;fillColor=none;" vertex="1" parent="1">
          <mxGeometry x="-740" y="-960" width="80" height="40" as="geometry" />
        </mxCell>
        <mxCell id="i2Jq146n77kg6ucFChfH-11" value="CASOS DE USO DE CLIENTE" style="text;html=1;align=center;verticalAlign=middle;resizable=0;points=[];autosize=1;strokeColor=none;fillColor=none;" vertex="1" parent="1">
          <mxGeometry x="-730" y="-1110" width="180" height="30" as="geometry" />
        </mxCell>
      </root>
    </mxGraphModel>
  </diagram>
</mxfile>
